<svg width="1956" height="435" viewBox="0 0 1956 435" fill="none" xmlns="http://www.w3.org/2000/svg">
<g clip-path="url(#clip0_4007_136)">
<path d="M1206 17C1233.06 17 1260.12 17 1288 17C1288.33 91.25 1288.66 165.5 1289 242C1302.16 232.198 1302.16 232.198 1315 222C1316 221.19 1316.99 220.381 1318.02 219.547C1332.55 207.536 1346.67 194.115 1358 179C1358.93 177.794 1359.87 176.588 1360.8 175.383C1372.84 159.763 1382.44 143.374 1392 126C1423.68 126 1455.36 126 1488 126C1479.84 145.813 1479.84 145.813 1475.19 154.125C1474.67 155.053 1474.16 155.981 1473.63 156.938C1463.88 174.312 1452.16 190.131 1438.4 204.537C1437.47 205.511 1436.54 206.491 1435.62 207.475C1423.28 220.679 1408.84 231.353 1393 240C1392.37 240.344 1391.75 240.687 1391.1 241.042C1373.69 250.453 1352.08 260 1332 260C1332 262.97 1332 265.94 1332 269C1333.13 268.691 1334.27 268.381 1335.44 268.062C1361.25 261.022 1392.58 265.15 1415.85 278.075C1423.85 282.753 1430.5 288.42 1437 295C1437.79 295.79 1438.58 296.58 1439.39 297.395C1468.59 328.171 1480.28 375.8 1491.65 415.48C1492.01 416.732 1492.01 416.732 1492.38 418.01C1494 423.756 1494 423.756 1494 426C1463.97 426 1433.94 426 1403 426C1399.7 414.12 1396.4 402.24 1393 390C1379.1 344.703 1379.1 344.703 1346 312.625C1327.01 303.825 1309.93 305.626 1288 305C1288 344.93 1288 384.86 1288 426C1260.94 426 1233.88 426 1206 426C1206 291.03 1206 156.06 1206 17Z" fill="white"/>
<path d="M667.285 117.609C670.066 117.625 672.846 117.609 675.627 117.59C707.661 117.553 740.925 124.327 764.988 146.922C790.745 173.529 797.192 210.45 797.379 246.164C797.395 247.889 797.412 249.613 797.43 251.338C797.476 255.857 797.511 260.376 797.543 264.896C797.601 272.902 797.677 280.908 797.754 288.914C797.762 289.792 797.771 290.67 797.779 291.574C798.046 318.765 798.629 345.926 800.438 373.062C800.561 375.004 800.684 376.946 800.807 378.889C801.811 394.597 802.917 410.297 804 426C779.58 426 755.16 426 730 426C725.364 393.547 725.364 393.547 724.25 380.875C724.124 379.545 723.998 378.216 723.871 376.887C723.233 369.891 722.865 363.024 723 356C719.7 356 716.4 356 713 356C712.91 356.668 712.82 357.335 712.727 358.023C711.797 361.833 710.147 365.153 708.375 368.625C708.015 369.333 707.656 370.042 707.285 370.772C693.25 398.024 671.064 419.44 641.769 429.231C614.2 438.022 583.833 436.549 557.988 423.476C541.466 414.464 529.189 399.911 523.323 381.923C516.453 358.155 515.87 330.59 527 308C537.019 290.738 551.181 281.138 569 273C569.648 272.701 570.297 272.402 570.965 272.094C598.221 259.809 629.537 255.641 658.777 250.675C661.485 250.215 664.193 249.751 666.9 249.287C670.382 248.691 673.865 248.108 677.35 247.535C696.381 244.957 696.381 244.957 711.309 234.207C715.469 226.533 715.12 217.247 713.34 208.906C710.198 199.222 704.614 192.116 695.68 187.215C688.848 184.118 681.475 182.468 674 182C673.228 181.947 672.456 181.894 671.66 181.84C651.883 181.156 631.94 187.585 617.313 201.062C608.792 210.041 603.99 221.453 600 233C595.248 232.413 590.847 231.484 586.27 230.082C585.639 229.89 585.007 229.698 584.356 229.5C582.292 228.871 580.23 228.235 578.168 227.598C576.726 227.155 575.283 226.713 573.84 226.271C570.83 225.347 567.82 224.42 564.811 223.489C560.952 222.297 557.09 221.115 553.226 219.935C550.253 219.026 547.281 218.111 544.309 217.194C542.885 216.756 541.461 216.319 540.035 215.885C538.049 215.278 536.066 214.664 534.083 214.047C532.954 213.699 531.825 213.351 530.661 212.993C528 212 528 212 526 210C531.431 192.982 538.596 177.861 550 164C550.911 162.878 550.911 162.878 551.84 161.734C579.712 128.617 625.777 117.324 667.285 117.609ZM711.879 281.137C698.516 285.994 684.966 288.506 671 291C639.951 295.695 639.951 295.695 612 309C611.132 309.58 611.132 309.58 610.246 310.172C603.852 314.851 600.646 322.218 599.281 329.828C598.005 339.685 599.798 349.945 605.566 358.195C612.398 366.796 620.415 371.961 631.395 373.715C652.187 375.99 671.303 368.516 687.625 355.91C688.409 355.28 689.193 354.649 690 354C690.681 353.483 691.361 352.966 692.063 352.434C698.846 346.977 703.974 340.038 709 333C709.42 332.438 709.839 331.877 710.271 331.298C718.867 319.489 717.877 307.07 717 293C716.934 291.815 716.934 291.815 716.867 290.606C716.663 287.06 716.393 283.53 716 280C714.603 279.943 714.603 279.943 711.879 281.137Z" fill="white"/>
<path d="M1076 122C1076.67 122.214 1077.35 122.429 1078.04 122.65C1091.7 127.196 1102.78 134.97 1113 145C1114.01 145.977 1114.01 145.977 1115.05 146.973C1136.12 168.844 1142.65 201.927 1146 231C1146.09 231.744 1146.18 232.487 1146.27 233.253C1147.22 242.205 1147.13 251.151 1147.11 260.139C1147.11 261.954 1147.11 263.768 1147.11 265.583C1147.11 270.479 1147.11 275.374 1147.1 280.27C1147.1 285.398 1147.09 290.526 1147.09 295.653C1147.09 305.35 1147.08 315.046 1147.07 324.743C1147.06 337.855 1147.05 350.967 1147.05 364.08C1147.04 384.72 1147.02 405.36 1147 426C1119.61 426 1092.22 426 1064 426C1063.95 415.185 1063.9 404.37 1063.85 393.227C1063.82 386.327 1063.78 379.427 1063.74 372.527C1063.68 361.604 1063.62 350.681 1063.58 339.757C1063.54 331.797 1063.5 323.837 1063.46 315.877C1063.43 311.675 1063.41 307.472 1063.4 303.269C1065.09 248.62 1065.09 248.62 1042.94 200.727C1032.47 190.687 1019.77 187.506 1005.62 187.75C990.227 188.812 977.461 195.057 966.875 206.246C945.768 231.352 940.935 264.803 940.795 296.581C940.785 298.002 940.775 299.422 940.765 300.843C940.738 304.66 940.717 308.477 940.697 312.295C940.675 316.298 940.647 320.302 940.621 324.306C940.571 331.87 940.526 339.435 940.483 346.999C940.424 357.234 940.358 367.468 940.292 377.702C940.189 393.801 940.095 409.901 940 426C912.61 426 885.22 426 857 426C857 327 857 228 857 126C879.44 126 901.88 126 925 126C925 155.37 925 184.74 925 215C929.95 214.505 929.95 214.505 935 214C935.34 212.716 935.681 211.432 936.031 210.109C944.428 179.17 957.232 147.983 985.918 130.691C1012.52 116.09 1046.91 112.699 1076 122Z" fill="white"/>
<path d="M130.852 117.684C133.667 117.688 136.48 117.664 139.295 117.639C178.919 117.5 217.014 128.426 246.312 155.875C258.042 168.23 266.74 184.306 270 201C262.298 204.212 254.475 206.929 246.555 209.547C245.304 209.963 244.053 210.379 242.764 210.808C239.473 211.902 236.182 212.993 232.89 214.082C229.517 215.2 226.145 216.321 222.773 217.441C216.183 219.631 209.592 221.817 203 224C201.02 221.03 200.332 218.898 199.375 215.5C195.771 204.461 188.264 195.097 178.133 189.383C155.957 178.485 127.752 176.073 104.156 183.949C102.01 184.854 100.018 185.841 97.9999 187C96.9481 187.598 95.8962 188.196 94.8124 188.813C89.5388 192.914 85.3966 197.296 83.9999 204C83.3723 210.779 85.1443 215.883 88.5624 221.625C94.4877 227.398 101.484 230.365 109.23 232.914C110.017 233.174 110.803 233.434 111.614 233.702C120.031 236.422 128.569 238.47 137.187 240.438C138.845 240.823 140.503 241.21 142.161 241.597C149.934 243.407 157.717 245.169 165.512 246.887C245.598 264.549 245.598 264.549 265.578 295.508C276.905 315.361 279.282 339.517 273.977 361.68C266.605 386.744 250.873 404.449 228.227 416.982C205.45 429.066 178.069 434.065 152.461 434.203C151.585 434.21 150.71 434.217 149.807 434.224C146.997 434.242 144.186 434.248 141.375 434.25C140.414 434.251 139.452 434.251 138.462 434.252C95.8143 434.205 52.2884 426.236 20.9999 395C12.5209 385.676 6.576 375.448 2.49995 363.563C2.2323 362.793 1.96466 362.023 1.68891 361.231C1.45124 360.496 1.21357 359.761 0.968695 359.004C0.756645 358.352 0.544594 357.701 0.326117 357.03C-0.139203 354.134 -0.201946 352.734 0.999945 350C3.67796 348.251 6.59871 347.2 9.58198 346.074C10.4654 345.723 11.3487 345.372 12.2589 345.01C15.1031 343.884 17.9572 342.785 20.8124 341.688C22.6628 340.961 24.5124 340.232 26.3613 339.502C30.0465 338.049 33.7355 336.607 37.4282 335.173C45.9783 331.848 54.4876 328.421 62.9999 325C64.3623 327.696 65.5917 330.399 66.7499 333.188C73.9052 349.143 86.6099 358.969 102.687 365.188C110.32 368.01 117.951 369.75 126 371C126.834 371.132 127.668 371.263 128.527 371.399C148.179 373.884 173.758 373.549 190.199 361.496C195.965 356.706 198.587 350.852 199.375 343.5C198.625 336.498 196.58 331.512 191 327C175.8 315.677 155.034 312.974 137 309C77.831 295.846 77.831 295.846 56.9999 286C56.304 285.672 55.6081 285.343 54.8911 285.004C46.4656 280.941 39.0726 276.163 31.9999 270C31.0331 269.233 30.0664 268.466 29.0703 267.676C20.547 260.572 13.5573 250.448 9.99995 240C9.61065 238.915 9.22135 237.829 8.82026 236.711C3.41746 219.012 3.92525 198.444 9.99995 181C10.2887 180.089 10.5774 179.177 10.8749 178.238C19.0691 154.936 39.6237 140.252 60.9096 129.958C69.2354 126.144 78.0438 123.866 86.9374 121.813C87.6038 121.657 88.2702 121.502 88.9567 121.343C102.869 118.333 116.67 117.651 130.852 117.684Z" fill="white"/>
<path d="M1815.31 117.562C1816.56 117.553 1816.56 117.553 1817.84 117.543C1833.5 117.469 1849.12 118.944 1864.13 123.687C1864.94 123.941 1865.76 124.194 1866.61 124.455C1897.13 134.285 1921.07 154.254 1935.95 182.629C1940.8 192.332 1946 204.043 1946 215C1930.63 220.029 1915.25 225.051 1899.87 230.063C1897.34 230.889 1894.81 231.716 1892.27 232.543C1888.73 233.701 1885.18 234.852 1881.63 236C1880.16 236.478 1880.16 236.478 1878.67 236.967C1877.37 237.385 1877.37 237.385 1876.04 237.812C1875.32 238.046 1874.6 238.279 1873.86 238.519C1872 239 1872 239 1869 239C1868.76 237.817 1868.52 236.633 1868.27 235.414C1864.61 217.985 1859.34 202.721 1844 192C1828 183.177 1811.85 181.386 1794 185C1777.75 189.775 1766.87 200.54 1758.81 215.062C1754.62 223.035 1751.98 231.234 1750 240C1749.84 240.716 1749.67 241.432 1749.5 242.17C1742.47 274.792 1744.86 313.858 1762 343C1771.28 356.916 1784.83 365.87 1801.13 369.476C1805.42 370.258 1809.65 370.774 1814 371C1814.78 371.041 1815.55 371.082 1816.35 371.125C1833.75 371.578 1848.12 366.682 1862.19 356.75C1874.98 344.239 1879.21 327.866 1883 311C1891.67 312.343 1900.2 314.069 1908.75 316.004C1910.02 316.287 1911.28 316.571 1912.58 316.862C1915.23 317.456 1917.88 318.052 1920.52 318.65C1923.91 319.416 1927.3 320.177 1930.69 320.936C1933.94 321.665 1937.19 322.397 1940.44 323.129C1941.66 323.402 1942.87 323.675 1944.13 323.956C1945.25 324.21 1946.37 324.463 1947.53 324.725C1949.01 325.059 1949.01 325.059 1950.52 325.4C1953 326 1953 326 1956 327C1953.3 355.102 1941.12 383.666 1919.25 402.187C1889.79 425.958 1855.48 434.466 1818.19 434.375C1817.34 434.374 1816.49 434.374 1815.62 434.373C1772.73 434.247 1732.15 422.634 1701 392C1669.88 359.875 1661.33 315.149 1661.79 272.027C1662.5 227.252 1677.96 186.086 1709.61 154.383C1726.68 138.148 1748.28 127.711 1771 122C1771.83 121.79 1772.67 121.579 1773.53 121.363C1787.36 118.079 1801.17 117.612 1815.31 117.562Z" fill="white"/>
<path d="M366.943 58.8798C367.793 58.882 368.644 58.8842 369.52 58.8865C370.981 58.8867 370.981 58.8867 372.473 58.8869C373.504 58.892 374.535 58.8971 375.598 58.9024C377.012 58.9039 377.012 58.9039 378.454 58.9054C381.99 58.9107 385.526 58.9246 389.062 58.9375C396.962 58.9581 404.861 58.9788 413 59C413 81.11 413 103.22 413 126C438.08 126 463.16 126 489 126C489 148.11 489 170.22 489 193C463.92 193 438.84 193 413 193C413.062 216.879 413.062 216.879 413.16 240.758C413.209 250.502 413.253 260.245 413.271 269.989C413.284 277.087 413.311 284.185 413.355 291.282C413.377 295.037 413.393 298.79 413.392 302.545C413.391 306.087 413.409 309.63 413.441 313.172C413.454 315.073 413.447 316.975 413.439 318.876C413.567 329.528 415.423 339.524 423.086 347.383C431.238 354.271 441.683 355.394 452 355.375C453.362 355.373 453.362 355.373 454.751 355.37C466.493 355.161 477.73 352.869 488 347C488.66 347 489.32 347 490 347C490 372.41 490 397.82 490 424C471.926 429.648 471.926 429.648 465.188 430.75C464.541 430.862 463.895 430.974 463.229 431.09C430.857 436.469 393.688 435.421 366.027 415.902C344.668 399.244 337.115 373.777 333.729 347.93C332.865 340.35 332.866 332.806 332.886 325.187C332.887 323.718 332.887 322.248 332.886 320.779C332.886 316.819 332.892 312.859 332.899 308.899C332.905 304.749 332.905 300.6 332.907 296.451C332.91 288.606 332.918 280.762 332.928 272.918C332.939 263.982 332.945 255.046 332.95 246.11C332.96 227.74 332.978 209.37 333 191C318.48 191 303.96 191 289 191C289.109 182.975 289.22 174.951 289.339 166.926C289.394 163.189 289.448 159.452 289.497 155.716C289.545 152.117 289.597 148.518 289.653 144.92C289.673 143.546 289.692 142.173 289.709 140.799C289.733 138.877 289.764 136.954 289.795 135.032C289.81 133.937 289.826 132.842 289.842 131.715C290 129 290 129 291 126C291.916 125.98 292.832 125.96 293.775 125.94C297.257 125.861 300.739 125.774 304.22 125.683C305.711 125.645 307.203 125.61 308.694 125.578C330.633 126.009 330.633 126.009 350 118C355.862 111.418 356.725 103.001 358.125 94.625C358.378 93.1891 358.633 91.7535 358.889 90.3181C360.39 81.8487 361.843 73.3652 363.151 64.8638C364.061 59.0582 364.061 59.0582 366.943 58.8798Z" fill="white"/>
<path d="M1532 126C1559.39 126 1586.78 126 1615 126C1615 225 1615 324 1615 426C1587.61 426 1560.22 426 1532 426C1532 327 1532 228 1532 126Z" fill="white"/>
<path d="M1573.81 0.562538C1575.66 0.573898 1575.66 0.573898 1577.54 0.585487C1591.25 0.833901 1604.35 3.0224 1614.8 12.6602C1622.65 21.21 1625.61 32.064 1625.24 43.5586C1624.14 54.647 1621.16 63.454 1612.74 71.0313C1597.19 82.8356 1576.02 82.7519 1557.4 80.7159C1547.05 78.9977 1537.1 74.3226 1530.5 66C1523.52 55.5991 1522.95 44.1806 1524 32C1526.43 21.01 1532.52 12.8955 1541.87 6.77348C1551.77 1.37135 1562.75 0.466985 1573.81 0.562538Z" fill="white"/>
</g>
<defs>
<clipPath id="clip0_4007_136">
<rect width="1956" height="435" fill="white"/>
</clipPath>
</defs>
</svg>
